<svg viewBox="0 0 667 309" fill="none" xmlns="http://www.w3.org/2000/svg">
<g filter="url(#filter0_d_640_4648)">
<rect x="35" y="95" width="126" height="126" rx="8.63014" fill="white"/>
</g>
<path d="M101.037 147.584H82.7588L77.0116 137.691H106.784L115.452 122.616H66.2708C64.7208 122.613 63.1977 123.022 61.857 123.8C60.5163 124.578 59.406 125.697 58.6393 127.045C57.8526 128.388 57.438 129.916 57.438 131.473C57.438 133.029 57.8526 134.558 58.6393 135.901L90.0135 190.264C90.7958 191.592 91.9113 192.694 93.2498 193.459C94.5883 194.224 96.1033 194.627 97.645 194.627C99.1868 194.627 100.702 194.224 102.04 193.459C103.379 192.694 104.494 191.592 105.277 190.264L106.313 188.474L91.8978 163.412L101.037 147.584Z" fill="#4AD295"/>
<path d="M136.745 127.045C135.978 125.697 134.868 124.578 133.527 123.8C132.186 123.022 130.663 122.613 129.113 122.616H126.946L103.392 163.412L112.06 178.487L136.745 135.807C137.514 134.475 137.919 132.964 137.919 131.426C137.919 129.888 137.514 128.377 136.745 127.045Z" fill="#4AD295"/>
<path d="M255.031 140.307C256.874 137.48 259.455 134.9 263.633 134.9C268.425 134.9 273.463 139.201 273.463 145.959C273.463 156.035 260.315 166.479 257.489 168.199C256.137 169.059 255.769 169.305 255.031 169.305C254.294 169.305 253.925 169.059 252.574 168.199C249.748 166.479 236.6 156.035 236.6 145.959C236.6 139.201 241.638 134.9 246.43 134.9C250.608 134.9 253.188 137.48 255.031 140.307Z" fill="#F86264"/>
<g filter="url(#filter1_d_640_4648)">
<rect x="344" y="95" width="126" height="126" rx="8.63014" fill="white"/>
</g>
<path d="M395 194C401.624 194 407 188.624 407 182V170H395C388.376 170 383 175.376 383 182C383 188.624 388.376 194 395 194Z" fill="#0ACF83"/>
<path d="M383 158C383 151.376 388.376 146 395 146H407V170H395C388.376 170 383 164.624 383 158Z" fill="#A259FF"/>
<path d="M383 134C383 127.376 388.376 122 395 122H407V146H395C388.376 146 383 140.624 383 134Z" fill="#F24E1E"/>
<path d="M407 122H419C425.624 122 431 127.376 431 134C431 140.624 425.624 146 419 146H407V122Z" fill="#FF7262"/>
<path d="M431 158C431 164.624 425.624 170 419 170C412.376 170 407 164.624 407 158C407 151.376 412.376 146 419 146C425.624 146 431 151.376 431 158Z" fill="#1ABCFE"/>
<path d="M145.255 172.7C144.586 163.499 211.076 190.613 252.18 153.496C293.283 116.38 373.625 153.496 373.625 153.496" stroke="black" stroke-width="2.625"/>
<circle cx="255.25" cy="151.25" r="3.9375" fill="white" stroke="black" stroke-width="2.625"/>
<circle cx="373.625" cy="155.375" r="3.9375" fill="white" stroke="black" stroke-width="2.625"/>
<circle cx="147.875" cy="171.125" r="3.9375" fill="white" stroke="black" stroke-width="2.625"/>
<rect x="276.45" y="192.45" width="116.1" height="30.1" rx="1.45" fill="#4AD295" stroke="black" stroke-width="2.9"/>
<path d="M293.298 201.345H295.973V209.563C295.973 210.486 295.753 211.294 295.312 211.986C294.876 212.678 294.264 213.217 293.477 213.605C292.69 213.988 291.774 214.179 290.727 214.179C289.677 214.179 288.758 213.988 287.972 213.605C287.185 213.217 286.573 212.678 286.136 211.986C285.7 211.294 285.481 210.486 285.481 209.563V201.345H288.157V209.335C288.157 209.817 288.262 210.245 288.472 210.62C288.686 210.995 288.987 211.289 289.374 211.504C289.761 211.718 290.212 211.825 290.727 211.825C291.246 211.825 291.697 211.718 292.081 211.504C292.468 211.289 292.766 210.995 292.977 210.62C293.191 210.245 293.298 209.817 293.298 209.335V201.345ZM300.757 208.513V214H298.125V204.509H300.634V206.184H300.745C300.955 205.632 301.307 205.195 301.802 204.874C302.296 204.548 302.895 204.386 303.6 204.386C304.259 204.386 304.833 204.53 305.324 204.818C305.814 205.106 306.195 205.518 306.467 206.054C306.739 206.585 306.875 207.22 306.875 207.957V214H304.242V208.427C304.246 207.846 304.098 207.393 303.797 207.067C303.497 206.738 303.083 206.573 302.555 206.573C302.201 206.573 301.888 206.649 301.616 206.801C301.349 206.954 301.138 207.176 300.986 207.469C300.838 207.757 300.761 208.105 300.757 208.513ZM311.581 201.345V214H308.949V201.345H311.581ZM317.978 214.185C317.018 214.185 316.188 213.981 315.488 213.574C314.792 213.162 314.254 212.589 313.875 211.856C313.496 211.119 313.307 210.264 313.307 209.292C313.307 208.311 313.496 207.454 313.875 206.721C314.254 205.984 314.792 205.411 315.488 205.003C316.188 204.591 317.018 204.386 317.978 204.386C318.938 204.386 319.766 204.591 320.462 205.003C321.162 205.411 321.702 205.984 322.081 206.721C322.46 207.454 322.649 208.311 322.649 209.292C322.649 210.264 322.46 211.119 322.081 211.856C321.702 212.589 321.162 213.162 320.462 213.574C319.766 213.981 318.938 214.185 317.978 214.185ZM317.991 212.146C318.427 212.146 318.792 212.023 319.084 211.776C319.377 211.524 319.597 211.182 319.745 210.75C319.898 210.317 319.974 209.825 319.974 209.273C319.974 208.721 319.898 208.229 319.745 207.796C319.597 207.364 319.377 207.022 319.084 206.771C318.792 206.519 318.427 206.394 317.991 206.394C317.55 206.394 317.179 206.519 316.878 206.771C316.582 207.022 316.357 207.364 316.205 207.796C316.057 208.229 315.982 208.721 315.982 209.273C315.982 209.825 316.057 210.317 316.205 210.75C316.357 211.182 316.582 211.524 316.878 211.776C317.179 212.023 317.55 212.146 317.991 212.146ZM328.649 214.185C327.677 214.185 326.841 213.979 326.141 213.567C325.444 213.151 324.909 212.575 324.534 211.837C324.163 211.1 323.978 210.251 323.978 209.292C323.978 208.319 324.165 207.467 324.54 206.734C324.919 205.996 325.457 205.422 326.153 205.01C326.849 204.594 327.677 204.386 328.637 204.386C329.465 204.386 330.19 204.536 330.812 204.837C331.434 205.137 331.926 205.56 332.289 206.103C332.651 206.647 332.851 207.286 332.888 208.019H330.404C330.334 207.545 330.149 207.164 329.848 206.876C329.551 206.583 329.162 206.437 328.68 206.437C328.272 206.437 327.916 206.548 327.611 206.771C327.311 206.989 327.076 207.308 326.907 207.728C326.738 208.149 326.653 208.657 326.653 209.255C326.653 209.86 326.736 210.375 326.901 210.799C327.07 211.224 327.306 211.547 327.611 211.769C327.916 211.992 328.272 212.103 328.68 212.103C328.981 212.103 329.251 212.041 329.49 211.918C329.733 211.794 329.932 211.615 330.089 211.38C330.25 211.141 330.355 210.855 330.404 210.521H332.888C332.847 211.246 332.649 211.885 332.295 212.437C331.945 212.985 331.461 213.413 330.843 213.722C330.225 214.031 329.494 214.185 328.649 214.185ZM336.958 211.269L336.965 208.111H337.348L340.388 204.509H343.409L339.325 209.279H338.701L336.958 211.269ZM334.573 214V201.345H337.206V214H334.573ZM340.505 214L337.712 209.866L339.467 208.006L343.589 214H340.505ZM355.642 204.985C355.593 204.486 355.381 204.099 355.006 203.823C354.631 203.547 354.122 203.409 353.48 203.409C353.043 203.409 352.674 203.471 352.373 203.595C352.073 203.714 351.842 203.881 351.681 204.095C351.525 204.309 351.447 204.552 351.447 204.824C351.438 205.051 351.486 205.249 351.589 205.417C351.696 205.586 351.842 205.733 352.027 205.856C352.213 205.976 352.427 206.081 352.67 206.171C352.913 206.258 353.173 206.332 353.449 206.394L354.586 206.666C355.138 206.789 355.644 206.954 356.106 207.16C356.567 207.366 356.967 207.619 357.304 207.92C357.642 208.221 357.904 208.575 358.089 208.983C358.279 209.39 358.375 209.858 358.379 210.385C358.375 211.16 358.178 211.831 357.786 212.4C357.399 212.964 356.839 213.403 356.106 213.716C355.376 214.025 354.497 214.179 353.467 214.179C352.446 214.179 351.556 214.023 350.798 213.71C350.044 213.397 349.455 212.933 349.031 212.319C348.61 211.701 348.39 210.937 348.369 210.027H350.958C350.987 210.451 351.109 210.805 351.323 211.09C351.541 211.37 351.832 211.582 352.194 211.726C352.561 211.866 352.975 211.936 353.436 211.936C353.889 211.936 354.283 211.87 354.616 211.738C354.954 211.607 355.216 211.423 355.401 211.189C355.587 210.954 355.679 210.684 355.679 210.379C355.679 210.095 355.595 209.856 355.426 209.662C355.261 209.469 355.018 209.304 354.697 209.168C354.38 209.032 353.99 208.909 353.529 208.797L352.151 208.451C351.084 208.192 350.242 207.786 349.624 207.234C349.006 206.682 348.699 205.938 348.703 205.003C348.699 204.237 348.903 203.568 349.315 202.995C349.731 202.423 350.301 201.976 351.026 201.654C351.751 201.333 352.575 201.172 353.498 201.172C354.437 201.172 355.257 201.333 355.957 201.654C356.662 201.976 357.21 202.423 357.601 202.995C357.992 203.568 358.194 204.231 358.206 204.985H355.642ZM362.465 201.345L365.524 210.96H365.641L368.706 201.345H371.672L367.31 214H363.862L359.493 201.345H362.465ZM380.872 205.436C380.786 205.135 380.664 204.87 380.508 204.639C380.351 204.404 380.16 204.206 379.933 204.046C379.711 203.881 379.455 203.755 379.167 203.669C378.883 203.582 378.568 203.539 378.222 203.539C377.575 203.539 377.006 203.7 376.516 204.021C376.03 204.342 375.651 204.81 375.379 205.424C375.107 206.033 374.972 206.779 374.972 207.66C374.972 208.542 375.105 209.292 375.373 209.91C375.641 210.527 376.02 210.999 376.51 211.325C377 211.646 377.579 211.806 378.246 211.806C378.852 211.806 379.369 211.699 379.797 211.485C380.23 211.267 380.559 210.96 380.786 210.564C381.017 210.169 381.132 209.701 381.132 209.162L381.676 209.242H378.413V207.228H383.709V208.822C383.709 209.934 383.474 210.89 383.004 211.689C382.535 212.484 381.888 213.098 381.064 213.53C380.24 213.959 379.297 214.173 378.234 214.173C377.048 214.173 376.005 213.911 375.107 213.388C374.209 212.861 373.509 212.113 373.007 211.145C372.508 210.173 372.259 209.02 372.259 207.685C372.259 206.659 372.407 205.745 372.704 204.942C373.005 204.134 373.425 203.45 373.964 202.89C374.504 202.33 375.132 201.904 375.849 201.611C376.566 201.319 377.342 201.172 378.178 201.172C378.895 201.172 379.563 201.277 380.18 201.488C380.798 201.694 381.346 201.986 381.824 202.365C382.306 202.744 382.699 203.195 383.004 203.718C383.309 204.237 383.505 204.81 383.591 205.436H380.872Z" fill="black"/>
<path d="M271.314 183.016L271.688 182.509L272.315 182.436L283.726 181.12L283.728 181.12C283.755 181.117 283.783 181.105 283.806 181.086C283.829 181.067 283.841 181.045 283.846 181.027C283.853 181.004 283.854 180.975 283.844 180.942C283.834 180.911 283.817 180.887 283.799 180.872C283.798 180.871 283.798 180.871 283.797 180.871L257.75 159.806L257.75 159.806L257.743 159.8C257.719 159.78 257.696 159.773 257.674 159.772C257.651 159.77 257.624 159.776 257.598 159.792L257.591 159.796L257.584 159.8C257.557 159.817 257.541 159.837 257.532 159.859C257.522 159.881 257.518 159.907 257.525 159.94L257.525 159.94L264.427 191.956C264.443 192.019 264.493 192.061 264.541 192.073L264.541 192.073L264.541 192.073L264.541 192.073L264.541 192.073L264.541 192.073L264.541 192.073L264.541 192.073L264.541 192.073L264.541 192.073L264.541 192.073L264.541 192.073L264.541 192.073L264.542 192.073L264.542 192.073L264.542 192.073L264.542 192.073L264.542 192.073L264.542 192.073L264.542 192.073L264.542 192.073L264.542 192.073L264.542 192.073L264.542 192.073L264.542 192.073L264.542 192.073L264.542 192.073L264.542 192.073L264.542 192.073L264.542 192.073L264.542 192.073L264.543 192.073L264.543 192.073L264.543 192.073L264.543 192.073L264.543 192.073C264.592 192.082 264.646 192.062 264.678 192.019C264.678 192.019 264.678 192.019 264.679 192.018L271.314 183.016Z" fill="#4AD295" stroke="black" stroke-width="2.9"/>
<path fill-rule="evenodd" clip-rule="evenodd" d="M310.521 -59.4563L298.172 -62.765L287.251 -22.005L265.569 -59.5592L254.621 -53.2385L276.303 -15.6847L235.544 -26.606L232.235 -14.2576L272.984 -3.33882L235.413 18.3528L241.737 29.3068L279.315 7.61133L268.393 48.3713L280.742 51.68L291.663 10.9208L313.36 48.5L324.307 42.1792L302.611 4.59961L343.371 15.5213L346.68 3.17285L305.92 -7.74886L343.472 -29.4295L337.147 -40.3834L299.602 -18.7066L310.521 -59.4563Z" fill="#F86264"/>
<path d="M298.172 -62.765L298.819 -65.1799L296.405 -65.8269L295.758 -63.4121L298.172 -62.765ZM310.521 -59.4563L312.936 -58.8092L313.583 -61.224L311.168 -61.8711L310.521 -59.4563ZM287.251 -22.005L285.086 -20.755L288.103 -15.528L289.666 -21.3579L287.251 -22.005ZM265.569 -59.5592L267.734 -60.8092L266.484 -62.9743L264.319 -61.7243L265.569 -59.5592ZM254.621 -53.2385L253.371 -55.4036L251.206 -54.1536L252.456 -51.9885L254.621 -53.2385ZM276.303 -15.6847L275.656 -13.2699L281.485 -11.7078L278.468 -16.9347L276.303 -15.6847ZM235.544 -26.606L236.191 -29.0208L233.776 -29.6679L233.129 -27.2531L235.544 -26.606ZM232.235 -14.2576L229.82 -14.9046L229.173 -12.4898L231.588 -11.8427L232.235 -14.2576ZM272.984 -3.33882L274.234 -1.17376L279.461 -4.19153L273.631 -5.75364L272.984 -3.33882ZM235.413 18.3528L234.163 16.1878L231.998 17.4378L233.248 19.6028L235.413 18.3528ZM241.737 29.3068L239.572 30.5568L240.822 32.7218L242.987 31.4718L241.737 29.3068ZM279.315 7.61133L281.73 8.25838L283.292 2.42849L278.065 5.44626L279.315 7.61133ZM268.393 48.3713L265.979 47.7242L265.332 50.139L267.746 50.7861L268.393 48.3713ZM280.742 51.68L280.095 54.0948L282.51 54.7419L283.157 52.3271L280.742 51.68ZM291.663 10.9208L293.828 9.67084L290.811 4.44391L289.249 10.2738L291.663 10.9208ZM313.36 48.5L311.195 49.75L312.445 51.915L314.61 50.665L313.36 48.5ZM324.307 42.1792L325.557 44.3443L327.723 43.0943L326.473 40.9292L324.307 42.1792ZM302.611 4.59961L303.258 2.18479L297.428 0.622684L300.446 5.84961L302.611 4.59961ZM343.371 15.5213L342.724 17.9361L345.139 18.5832L345.786 16.1684L343.371 15.5213ZM346.68 3.17285L349.095 3.8199L349.742 1.40508L347.327 0.758034L346.68 3.17285ZM305.92 -7.74886L304.67 -9.91392L299.443 -6.89615L305.273 -5.33404L305.92 -7.74886ZM343.472 -29.4295L344.722 -27.2644L346.887 -28.5144L345.637 -30.6795L343.472 -29.4295ZM337.147 -40.3834L339.312 -41.6334L338.062 -43.7985L335.897 -42.5485L337.147 -40.3834ZM299.602 -18.7066L297.187 -19.3536L295.625 -13.5238L300.852 -16.5415L299.602 -18.7066ZM297.525 -60.3502L309.874 -57.0415L311.168 -61.8711L298.819 -65.1799L297.525 -60.3502ZM289.666 -21.3579L300.587 -62.118L295.758 -63.4121L284.836 -22.652L289.666 -21.3579ZM263.404 -58.3092L285.086 -20.755L289.416 -23.255L267.734 -60.8092L263.404 -58.3092ZM255.871 -51.0735L266.819 -57.3942L264.319 -61.7243L253.371 -55.4036L255.871 -51.0735ZM278.468 -16.9347L256.786 -54.4885L252.456 -51.9885L274.138 -14.4347L278.468 -16.9347ZM234.897 -24.1912L275.656 -13.2699L276.95 -18.0995L236.191 -29.0208L234.897 -24.1912ZM234.65 -13.6105L237.959 -25.959L233.129 -27.2531L229.82 -14.9046L234.65 -13.6105ZM273.631 -5.75364L232.882 -16.6724L231.588 -11.8427L272.337 -0.924007L273.631 -5.75364ZM236.663 20.5179L274.234 -1.17376L271.734 -5.50389L234.163 16.1878L236.663 20.5179ZM243.902 28.0568L237.578 17.1028L233.248 19.6028L239.572 30.5568L243.902 28.0568ZM278.065 5.44626L240.487 27.1417L242.987 31.4718L280.565 9.77639L278.065 5.44626ZM270.808 49.0183L281.73 8.25838L276.9 6.96428L265.979 47.7242L270.808 49.0183ZM281.389 49.2652L269.041 45.9564L267.746 50.7861L280.095 54.0948L281.389 49.2652ZM289.249 10.2738L278.327 51.033L283.157 52.3271L294.078 11.5679L289.249 10.2738ZM315.525 47.25L293.828 9.67084L289.498 12.1708L311.195 49.75L315.525 47.25ZM323.057 40.0142L312.11 46.3349L314.61 50.665L325.557 44.3443L323.057 40.0142ZM300.446 5.84961L322.142 43.4292L326.473 40.9292L304.776 3.34961L300.446 5.84961ZM344.018 13.1065L303.258 2.18479L301.964 7.01443L342.724 17.9361L344.018 13.1065ZM344.265 2.5258L340.956 14.8743L345.786 16.1684L349.095 3.8199L344.265 2.5258ZM305.273 -5.33404L346.033 5.58766L347.327 0.758034L306.567 -10.1637L305.273 -5.33404ZM342.222 -31.5945L304.67 -9.91392L307.17 -5.58379L344.722 -27.2644L342.222 -31.5945ZM334.982 -39.1334L341.307 -28.1795L345.637 -30.6795L339.312 -41.6334L334.982 -39.1334ZM300.852 -16.5415L338.397 -38.2183L335.897 -42.5485L298.352 -20.8717L300.852 -16.5415ZM308.106 -60.1033L297.187 -19.3536L302.017 -18.0595L312.936 -58.8092L308.106 -60.1033Z" fill="black"/>
<path d="M633.446 202.815C626.673 211.211 622.512 220.75 620.771 230.572C614.904 263.659 590.118 294.382 559.021 307.114C549.79 310.893 541.347 316.977 534.573 325.373C513.225 351.836 517.435 390.631 543.956 412.027C570.478 433.423 609.286 429.332 630.634 402.87C637.408 394.474 641.568 384.935 643.31 375.113C649.176 342.026 673.962 311.303 705.059 298.571C714.291 294.792 722.734 288.708 729.507 280.311C750.856 253.849 746.645 215.054 720.124 193.658C693.602 172.262 654.795 176.353 633.446 202.815ZM545.884 275.267C566.1 266.99 583.052 245.977 586.866 224.468C589.592 209.093 596.12 194.177 606.615 181.169C639.873 139.944 700.353 133.551 741.703 166.91C783.053 200.269 789.597 260.733 756.339 301.958C745.845 314.966 732.647 324.502 718.196 330.418C697.981 338.695 681.028 359.708 677.215 381.217C674.488 396.592 667.96 411.508 657.466 424.516C624.208 465.741 563.728 472.134 522.378 438.775C481.027 405.416 474.484 344.952 507.742 303.727C518.236 290.719 531.434 281.183 545.884 275.267Z" fill="#6574F8" stroke="black" stroke-width="5"/>
<path d="M613.976 178.486C611.626 184.098 607.039 188.411 602.861 191.375C600.877 192.783 599.032 193.853 597.654 194.583C597.175 193.167 596.601 191.202 596.17 188.9C595.262 184.055 595.034 177.961 597.384 172.349C599.734 166.737 604.321 162.424 608.498 159.459C610.483 158.051 612.327 156.981 613.705 156.251C614.184 157.668 614.758 159.633 615.19 161.934C616.097 166.779 616.326 172.874 613.976 178.486Z" fill="#FFD601" stroke="#1F0D0D" stroke-width="5"/>
<path d="M622.559 199.469C616.949 197.113 610.654 197.251 605.597 198.064C603.194 198.45 601.129 198.98 599.634 199.425C600.285 200.771 601.253 202.575 602.558 204.519C605.307 208.611 609.415 213.118 615.024 215.475C620.633 217.831 626.928 217.693 631.985 216.88C634.388 216.493 636.454 215.964 637.948 215.519C637.297 214.172 636.33 212.369 635.024 210.425C632.276 206.333 628.168 201.825 622.559 199.469Z" fill="#FFD601" stroke="#1F0D0D" stroke-width="5"/>
<path d="M569.904 196.511C575.514 198.868 581.808 198.73 586.866 197.917C589.269 197.53 591.334 197.001 592.829 196.556C592.178 195.209 591.21 193.406 589.905 191.461C587.156 187.37 583.048 182.862 577.439 180.506C571.83 178.15 565.535 178.287 560.478 179.101C558.075 179.487 556.009 180.016 554.514 180.462C555.166 181.808 556.133 183.612 557.439 185.556C560.187 189.647 564.295 194.155 569.904 196.511Z" fill="#FFD601" stroke="#1F0D0D" stroke-width="5"/>
<path d="M578.488 217.496C580.838 211.884 585.425 207.571 589.602 204.607C591.587 203.198 593.432 202.128 594.81 201.398C595.289 202.815 595.863 204.78 596.294 207.082C597.201 211.926 597.43 218.021 595.08 223.633C592.73 229.245 588.143 233.558 583.965 236.522C581.981 237.931 580.136 239.001 578.758 239.731C578.279 238.314 577.705 236.349 577.274 234.047C576.367 229.202 576.138 223.108 578.488 217.496Z" fill="#FFD601" stroke="#1F0D0D" stroke-width="5"/>
<path d="M63.3259 292.668L65.5272 291.66L64.5902 289.427C61.9039 283.027 64.7684 275.604 71.1258 272.692C77.6118 269.722 85.2777 272.572 88.2481 279.058C93.6672 290.891 92.9777 303.125 89.0676 315.17C85.2975 326.783 78.5832 338.059 71.6819 348.349C59.2321 346.834 46.3947 344.553 35.2584 339.812C23.7231 334.901 14.1517 327.413 8.69226 315.491C5.72192 309.005 8.57195 301.339 15.058 298.369C21.4153 295.458 28.9073 298.138 31.998 304.353L33.0761 306.521L35.2774 305.513L35.292 305.506L37.4933 304.498L36.5562 302.266C33.87 295.866 36.7345 288.442 43.0919 285.531C49.4493 282.619 56.9412 285.3 60.0319 291.515L61.11 293.682L63.3113 292.674L63.3259 292.668Z" fill="#AC7EE5" stroke="black" stroke-width="5"/>
<defs>
<filter id="filter0_d_640_4648" x="11.7397" y="78.6438" width="172.521" height="172.521" filterUnits="userSpaceOnUse" color-interpolation-filters="sRGB">
<feFlood flood-opacity="0" result="BackgroundImageFix"/>
<feColorMatrix in="SourceAlpha" type="matrix" values="0 0 0 0 0 0 0 0 0 0 0 0 0 0 0 0 0 0 127 0" result="hardAlpha"/>
<feMorphology radius="6" operator="dilate" in="SourceAlpha" result="effect1_dropShadow_640_4648"/>
<feOffset dy="6.90411"/>
<feGaussianBlur stdDeviation="8.63014"/>
<feComposite in2="hardAlpha" operator="out"/>
<feColorMatrix type="matrix" values="0 0 0 0 0 0 0 0 0 0 0 0 0 0 0 0 0 0 0.05 0"/>
<feBlend mode="normal" in2="BackgroundImageFix" result="effect1_dropShadow_640_4648"/>
<feBlend mode="normal" in="SourceGraphic" in2="effect1_dropShadow_640_4648" result="shape"/>
</filter>
<filter id="filter1_d_640_4648" x="320.74" y="78.6438" width="172.521" height="172.521" filterUnits="userSpaceOnUse" color-interpolation-filters="sRGB">
<feFlood flood-opacity="0" result="BackgroundImageFix"/>
<feColorMatrix in="SourceAlpha" type="matrix" values="0 0 0 0 0 0 0 0 0 0 0 0 0 0 0 0 0 0 127 0" result="hardAlpha"/>
<feMorphology radius="6" operator="dilate" in="SourceAlpha" result="effect1_dropShadow_640_4648"/>
<feOffset dy="6.90411"/>
<feGaussianBlur stdDeviation="8.63014"/>
<feComposite in2="hardAlpha" operator="out"/>
<feColorMatrix type="matrix" values="0 0 0 0 0 0 0 0 0 0 0 0 0 0 0 0 0 0 0.05 0"/>
<feBlend mode="normal" in2="BackgroundImageFix" result="effect1_dropShadow_640_4648"/>
<feBlend mode="normal" in="SourceGraphic" in2="effect1_dropShadow_640_4648" result="shape"/>
</filter>
</defs>
</svg>
